<svg width="1495" height="247" viewBox="0 0 1495 247" fill="none" xmlns="http://www.w3.org/2000/svg">
<path d="M0 0L90.9989 0.0251617C107.5 0 124.322 1.83359 140.012 7.49824C170.926 18.0164 197.448 41.034 211.767 70.4078C225.488 98.0927 227.777 131.163 218.075 160.497C208.787 189.073 188.372 213.686 162.382 228.686C144.27 239.35 123.457 244.882 102.537 246.025H0V208C0 208 66.5525 208.434 99.822 208.234C122.578 207.902 145.082 198.554 161.211 182.491C175.876 168.13 185.152 148.303 186.216 127.759C187.427 107.906 180.907 87.8139 168.597 72.2029C152.375 51.2597 126.318 38.4809 99.8486 38.1751C79.2082 38.1618 58.6404 38 38 38V67H0V0Z" fill="white"/>
<path d="M1495 246.025H1404C1387.47 245.666 1370.68 244.217 1354.99 238.552C1324.07 228.034 1297.55 205.016 1283.23 175.643C1269.51 147.958 1267.22 114.887 1276.92 85.5534C1286.21 56.9775 1306.63 32.3642 1332.62 17.3648C1350.73 6.70036 1371.54 1.1687 1392.46 0.0251312H1495V37.6698C1461.73 37.9091 1428.45 37.6166 1395.18 37.816C1372.42 38.1485 1349.92 47.4965 1333.79 63.5596C1319.12 77.9207 1309.85 97.747 1308.78 118.291C1307.57 138.144 1314.09 158.236 1326.4 173.847C1342.63 194.791 1368.53 207.694 1395 208H1457V179H1495V246.025Z" fill="white"/>
<path d="M239.5 0.0251923H281.786C307.318 45.5252 344.914 112.687 371.086 159.566C400.395 106.603 430.822 52.8953 460.318 0.0252075L502.303 0.0251923C497.318 9.02521 405.646 174.741 390 203.025C390 217.241 389.972 231.638 390.012 246.025L352 246.025C352 232.025 352 217.525 352 203.025C329.107 161.604 267.318 50.5252 239.5 0.0251923Z" fill="white"/>
<path d="M613 0.025177L749 246.025H709L613 72.5L517 246.025H477L613 0.025177Z" fill="white"/>
<path d="M804.547 0.0251775C817.116 -0.0147144 829.465 -0.00141831 842.047 0.0251763C842.021 68.1206 842.16 139.943 842 208.025C842 208.025 962 208 962 208.025C962 208.05 962 246 962 246.025H804.547C804.534 165.337 804.534 80.7132 804.547 0.0251775Z" fill="white"/>
<path d="M1100.05 0.372222C1128.24 -1.79133 1157.07 6.22334 1180.05 22.6745C1201.04 37.52 1217.23 59.0875 1225.46 83.4445C1234.18 108.89 1234.17 137.207 1225.47 162.652C1216.49 189.187 1198.07 212.36 1174.34 227.219C1151.89 241.425 1124.73 247.915 1098.28 245.548C1070.84 243.262 1044.39 231.301 1024.48 212.319C1004.04 193.078 990.496 166.653 987.025 138.799C983.241 110.088 990.019 80.1244 1005.96 55.9307C1026.46 24.1577 1062.25 2.80792 1100.05 0.372222ZM1091.99 40.2687C1070.7 44.5414 1051.36 57.5091 1039.18 75.4707C1028.47 91.051 1023.31 110.305 1024.73 129.151C1026.13 149.725 1035.48 169.578 1050.37 183.825C1063.95 197.011 1082.1 205.406 1100.96 207.121C1119.08 208.89 1137.74 204.59 1153.21 195.01C1170.35 184.506 1183.52 167.728 1189.55 148.555C1195.68 129.355 1194.6 107.951 1186.53 89.4725C1178.92 71.8103 1165.07 56.9376 1147.99 48.0929C1130.96 39.1393 1110.83 36.377 1091.99 40.2687Z" fill="white"/>
</svg>
