<svg width="1691" height="219" xmlns="http://www.w3.org/2000/svg" xmlns:xlink="http://www.w3.org/1999/xlink" overflow="hidden"><defs><clipPath id="clip0"><rect x="-1" y="-1" width="1691" height="219"/></clipPath></defs><g clip-path="url(#clip0)" transform="translate(1 1)"><path d="M162.5 14.1686C167.009 14.0001 174.241 14.5799 178.75 15.2208 183.259 15.8618 190.491 17.5798 195 18.7894 199.509 19.9989 206.741 22.4249 211.25 23.9384 215.76 25.4519 222.991 28.14 227.5 29.6985 232.009 31.257 239.241 33.7877 243.75 35.1719 248.26 36.5558 255.491 38.6299 260 39.6739 264.509 40.7181 271.741 42.0988 276.25 42.6965 280.76 43.2943 287.991 43.8719 292.5 43.9821 297.009 44.0926 304.241 43.8654 308.75 43.4916 313.26 43.1178 320.491 42.1045 325 41.2882 329.51 40.4718 336.741 38.8013 341.25 37.6091 345.76 36.4168 352.991 34.195 357.5 32.6952 362.01 31.1954 369.241 28.5357 373.75 26.7986 378.259 25.0612 390 20.1739 390 20.1739L390 217 0 217 0 169.31C0 169.31 11.7407 154.484 16.2498 148.604 20.7593 142.723 27.9905 132.981 32.5 126.925 37.0091 120.87 44.2407 110.971 48.7502 104.961 53.2593 98.9507 60.4905 89.3138 65 83.6074 69.5091 77.9013 76.7406 68.9724 81.2501 63.8345 85.7593 58.6967 92.9908 50.9056 97.5 46.5776 102.009 42.2493 109.241 35.9742 113.75 32.6401 118.259 29.3056 125.491 24.794 130 22.5455 134.509 20.2975 141.741 17.5975 146.25 16.4354 150.759 15.273 157.991 14.3371 162.5 14.1686Z" stroke="#000000" stroke-width="1.82648" stroke-miterlimit="1.27" fill="#4040FF" fill-rule="evenodd"/><path d="M815.708 14.0354C817.168 14.0668 818.628 14.1251 819.75 14.1983 821.993 14.3446 825.59 14.7536 827.833 15.089 830.076 15.4245 833.674 16.1199 835.917 16.6154 838.16 17.1105 844 18.6599 844 18.6599L844 217 650 217 650 169.279C650 169.279 655.84 161.948 658.083 159.073 660.326 156.199 663.924 151.511 666.167 148.559 668.41 145.607 672.007 140.807 674.25 137.797 676.493 134.787 680.09 129.911 682.333 126.867 684.576 123.823 688.174 118.907 690.417 115.857 692.66 112.808 696.257 107.91 698.5 104.888 700.743 101.865 704.34 97.0391 706.583 94.0743 708.827 91.1095 712.424 86.3932 714.667 83.5202 716.91 80.6473 720.507 76.1133 722.75 73.3679 724.993 70.6229 728.59 66.3195 730.833 63.7345 733.077 61.1491 736.673 57.1321 738.917 54.7363 741.16 52.3401 744.757 48.6441 747 46.4663 749.243 44.2885 752.84 40.9745 755.083 39.0395 757.326 37.1045 760.923 34.197 763.167 32.5197 765.41 30.8416 769.007 28.3488 771.25 26.9475 773.493 25.5462 777.09 23.5435 779.333 22.4185 781.576 21.2939 785.173 19.6883 787.417 18.8401 789.659 17.9915 793.257 16.8763 795.5 16.3044 797.743 15.7322 801.34 15.0317 803.583 14.7168 805.826 14.4022 809.423 14.1078 811.666 14.0361 812.788 14.0001 814.248 14.0041 815.708 14.0354Z" stroke="#000000" stroke-width="1.82648" stroke-miterlimit="1.27" fill="#9F409F" fill-rule="evenodd"/><path d="M844 17.9999 844 217 650 217 650 169.12 844 17.9999Z" stroke="#000000" stroke-width="1.82648" stroke-miterlimit="1.27" fill="#4040FF" fill-rule="evenodd"/><path d="M844 17.9999 1039 19.39 1039 217 844 217 844 17.9999Z" stroke="#000000" stroke-width="1.82648" stroke-miterlimit="1.27" fill="#FF4040" fill-rule="evenodd"/><path d="M844 17.9999C844 17.9999 849.87 19.7374 852.125 20.4547 854.38 21.1719 857.995 22.3943 860.25 23.1694 862.504 23.9445 866.12 25.2388 868.375 26.041 870.629 26.8433 874.245 28.1556 876.5 28.9524 878.755 29.7496 882.37 31.0222 884.625 31.7847 886.88 32.5468 890.495 33.7431 892.75 34.4477 895.005 35.1523 898.62 36.2355 900.875 36.8627 903.13 37.49 906.745 38.4361 909 38.9679 911.255 39.4994 914.87 40.2727 917.125 40.6935 919.38 41.1147 922.995 41.7007 925.25 42.0022 927.504 42.3041 931.12 42.6891 933.375 42.8681 935.63 43.0474 939.245 43.2369 941.5 43.2933 943.755 43.3493 947.37 43.3417 949.625 43.2734 951.88 43.205 955.495 42.9917 957.75 42.8005 960.004 42.61 963.62 42.204 965.875 41.897 968.13 41.5901 971.745 41.0015 974 40.5883 976.255 40.1751 979.87 39.4307 982.125 38.918 984.379 38.4057 987.995 37.4976 990.25 36.8945 992.505 36.2915 996.12 35.2553 998.375 34.571 1000.63 33.8862 1004.25 32.7196 1006.5 31.9614 1008.75 31.203 1012.37 29.9268 1014.63 29.1054 1016.88 28.284 1020.5 26.9167 1022.75 26.041 1025 25.1654 1028.62 23.7167 1030.87 22.7941 1033.13 21.8711 1039 19.39 1039 19.39L1039 217 844 217 844 17.9999Z" stroke="#000000" stroke-width="1.82648" stroke-miterlimit="1.27" fill="#4040FF" fill-rule="evenodd"/><path d="M1465.56 14.0354C1467.03 14.0668 1468.5 14.1251 1469.62 14.1983 1471.88 14.3446 1475.49 14.7536 1477.75 15.089 1480 15.4245 1483.62 16.1199 1485.87 16.6154 1488.13 17.1105 1494 18.6599 1494 18.6599L1494 217 1299 217 1299 169.279C1299 169.279 1304.87 161.948 1307.12 159.073 1309.38 156.199 1312.99 151.511 1315.25 148.559 1317.5 145.607 1321.12 140.807 1323.38 137.797 1325.63 134.787 1329.25 129.911 1331.5 126.867 1333.75 123.823 1337.37 118.907 1339.62 115.857 1341.88 112.808 1345.49 107.91 1347.75 104.888 1350 101.865 1353.62 97.0391 1355.87 94.0743 1358.13 91.1095 1361.75 86.3932 1364 83.5202 1366.25 80.6473 1369.87 76.1133 1372.12 73.3679 1374.38 70.6229 1378 66.3195 1380.25 63.7345 1382.5 61.1491 1386.12 57.1321 1388.37 54.7363 1390.63 52.3401 1394.24 48.6441 1396.5 46.4663 1398.75 44.2885 1402.37 40.9745 1404.62 39.0395 1406.88 37.1045 1410.49 34.197 1412.75 32.5197 1415 30.8416 1418.62 28.3488 1420.87 26.9475 1423.13 25.5462 1426.75 23.5435 1429 22.4185 1431.25 21.2939 1434.87 19.6883 1437.12 18.8401 1439.38 17.9915 1443 16.8763 1445.25 16.3044 1447.5 15.7322 1451.12 15.0317 1453.37 14.7168 1455.63 14.4022 1459.24 14.1078 1461.5 14.0361 1462.63 14.0001 1464.09 14.0041 1465.56 14.0354Z" stroke="#000000" stroke-width="1.82648" stroke-miterlimit="1.27" fill="#9F409F" fill-rule="evenodd"/><path d="M1494 17.9999 1494 217 1299 217 1299 169.119C1299 169.119 1304.87 162.335 1307.12 159.781 1309.38 157.227 1312.99 153.191 1315.25 150.709 1317.5 148.226 1321.12 144.298 1323.38 141.889 1325.63 139.48 1329.25 135.681 1331.5 133.347 1333.75 131.013 1337.37 127.328 1339.62 125.066 1341.88 122.803 1345.49 119.23 1347.75 117.042 1350 114.855 1353.62 111.415 1355.87 109.301 1358.13 107.187 1361.75 103.847 1364 101.805 1366.25 99.7638 1369.87 96.5522 1372.12 94.5844 1374.38 92.6165 1378 89.516 1380.25 87.6215 1382.5 85.7271 1386.12 82.7512 1388.37 80.9305 1390.63 79.1098 1394.24 76.2457 1396.5 74.4981 1398.75 72.75 1402.37 70.0063 1404.62 68.3331 1406.88 66.6603 1410.49 64.0391 1412.75 62.439 1415 60.8385 1418.62 58.3261 1420.87 56.7986 1423.13 55.2708 1426.75 52.881 1429 51.4284 1431.25 49.9757 1434.87 47.7081 1437.12 46.3281 1439.38 44.9485 1443 42.7912 1445.25 41.4843 1447.5 40.1777 1451.12 38.1437 1453.37 36.9108 1455.63 35.678 1459.24 33.7593 1461.5 32.5991 1463.75 31.4386 1467.37 29.6341 1469.62 28.5477 1471.88 27.4609 1475.49 25.7812 1477.75 24.7682 1480 23.7552 1483.62 22.1861 1485.87 21.2468 1488.13 20.3079 1494 17.9999 1494 17.9999Z" stroke="#000000" stroke-width="1.82648" stroke-miterlimit="1.27" fill="#4040FF" fill-rule="evenodd"/><path d="M1591.5 0.0162402C1593.75 0.0324805 1597.37 0.119456 1599.62 0.208597 1601.88 0.297738 1605.49 0.495508 1607.75 0.658632 1610 0.821756 1613.62 1.148 1615.87 1.38403 1618.13 1.62041 1621.75 2.05168 1624 2.36133 1626.25 2.67098 1629.87 3.23361 1632.12 3.61652 1634.38 3.99907 1637.99 4.66492 1640.25 5.12109 1642.5 5.57726 1646.12 6.37375 1648.37 6.90318 1650.63 7.43262 1654.24 8.33557 1656.5 8.93718 1658.75 9.53916 1662.37 10.5655 1664.62 11.2411 1666.88 11.9164 1670.49 13.0568 1672.75 13.8064 1675 14.5559 1678.62 15.8202 1680.87 16.6434 1683.13 17.4662 1689 19.7377 1689 19.7377L1689 217 1494 217 1494 18.354C1494 18.354 1499.87 16.1594 1502.12 15.3683 1504.38 14.5772 1508 13.3697 1510.25 12.6526 1512.5 11.9351 1516.12 10.8416 1518.37 10.1981 1520.63 9.55503 1524.24 8.58531 1526.5 8.01546 1528.75 7.44561 1532.37 6.58776 1534.62 6.09045 1536.88 5.59314 1540.5 4.85475 1542.75 4.43106 1545 4.00773 1548.62 3.3888 1550.87 3.03765 1553.13 2.68614 1556.74 2.17764 1559 1.89939 1561.25 1.6215 1564.87 1.23715 1567.12 1.03324 1569.38 0.829335 1573 0.56119 1575.25 0.430547 1577.5 0.299903 1581.12 0.149049 1583.37 0.0913062 1585.63 0.0339241 1589.24 0 1591.5 0.0162402Z" stroke="#000000" stroke-width="1.82648" stroke-miterlimit="1.27" fill="#FF4040" fill-rule="evenodd"/><path d="M1494 17.9999C1494 17.9999 1499.87 19.7374 1502.12 20.4547 1504.38 21.1719 1508 22.3943 1510.25 23.1694 1512.5 23.9445 1516.12 25.2388 1518.37 26.041 1520.63 26.8433 1524.24 28.1556 1526.5 28.9524 1528.75 29.7496 1532.37 31.0222 1534.62 31.7847 1536.88 32.5468 1540.5 33.7431 1542.75 34.4477 1545 35.1523 1548.62 36.2355 1550.87 36.8627 1553.13 37.49 1556.74 38.4361 1559 38.9679 1561.25 39.4994 1564.87 40.2727 1567.12 40.6935 1569.38 41.1147 1573 41.7007 1575.25 42.0022 1577.5 42.3041 1581.12 42.6891 1583.37 42.8681 1585.63 43.0474 1589.24 43.2369 1591.5 43.2933 1593.75 43.3493 1597.37 43.3417 1599.62 43.2734 1601.88 43.205 1605.49 42.9917 1607.75 42.8005 1610 42.61 1613.62 42.204 1615.87 41.897 1618.13 41.5901 1621.75 41.0015 1624 40.5883 1626.25 40.1751 1629.87 39.4307 1632.12 38.918 1634.38 38.4057 1637.99 37.4976 1640.25 36.8945 1642.5 36.2915 1646.12 35.2553 1648.37 34.571 1650.63 33.8862 1654.24 32.7196 1656.5 31.9614 1658.75 31.203 1662.37 29.9268 1664.62 29.1054 1666.88 28.284 1670.49 26.9167 1672.75 26.041 1675 25.1654 1678.62 23.7167 1680.87 22.7941 1683.13 21.8711 1689 19.39 1689 19.39L1689 217 1494 217 1494 17.9999Z" stroke="#000000" stroke-width="1.82648" stroke-miterlimit="1.27" fill="#4040FF" fill-rule="evenodd"/></g></svg>